G04 Layer_Physical_Order=1*
G04 Layer_Color=255*
%FSLAX44Y44*%
%MOMM*%
G71*
G01*
G75*
%ADD10R,1.7000X0.8000*%
%ADD11R,1.3970X1.6002*%
%ADD12R,1.2700X1.0160*%
%ADD13O,3.0000X1.0000*%
%ADD14R,3.0000X1.0000*%
%ADD15R,1.5000X5.4000*%
%ADD16R,2.1590X1.0668*%
%ADD17R,10.4100X10.8000*%
%ADD18R,1.0160X1.2700*%
%ADD19R,1.3970X1.3970*%
%ADD20O,0.6000X1.8000*%
%ADD21O,1.8000X0.6000*%
%ADD22O,1.6000X0.6000*%
%ADD23O,0.6000X1.6000*%
%ADD24R,1.0000X0.5000*%
%ADD25R,0.3500X0.4000*%
%ADD26R,0.3500X0.4500*%
%ADD27C,0.2540*%
%ADD28R,1.5000X1.5000*%
%ADD29C,1.5000*%
%ADD30R,1.5000X1.5000*%
%ADD31C,1.0000*%
%ADD32R,1.0000X1.0000*%
%ADD33C,1.2700*%
G36*
X759460Y570230D02*
X767080D01*
Y573965D01*
X802301D01*
X822723Y553543D01*
X822237Y552370D01*
X791450D01*
Y537290D01*
X794297D01*
X794783Y536117D01*
X792141Y533475D01*
X770890D01*
Y537210D01*
X756826D01*
X751153Y542883D01*
Y570230D01*
X756920D01*
Y577850D01*
X759460D01*
Y570230D01*
D02*
G37*
G36*
X302185Y324751D02*
X301587Y324503D01*
X299730Y323078D01*
X298305Y321221D01*
X297409Y319059D01*
X297103Y316738D01*
X297409Y314417D01*
X298305Y312255D01*
X299730Y310398D01*
X301587Y308973D01*
X303749Y308077D01*
X306070Y307771D01*
X308391Y308077D01*
X310553Y308973D01*
X312410Y310398D01*
X313835Y312255D01*
X314731Y314417D01*
X315037Y316738D01*
X314778Y318700D01*
X315560Y319970D01*
X320040D01*
Y325010D01*
X322580D01*
Y319970D01*
X328850D01*
Y321125D01*
X333026D01*
X334513Y321421D01*
X335773Y322263D01*
X374190Y360680D01*
X407291D01*
Y358680D01*
X407721Y356518D01*
X408946Y354686D01*
X409238Y354491D01*
X409351Y353923D01*
X410193Y352663D01*
X413813Y349043D01*
X415073Y348201D01*
X416560Y347905D01*
X439420D01*
X440907Y348201D01*
X442167Y349043D01*
X445687Y352563D01*
X446529Y353823D01*
X446665Y354506D01*
X446934Y354686D01*
X447305Y355241D01*
X448575D01*
X448946Y354686D01*
X449650Y354216D01*
X449509Y352782D01*
X448297Y352280D01*
X446440Y350855D01*
X445014Y348998D01*
X444119Y346836D01*
X443813Y344515D01*
X444119Y342194D01*
X445014Y340032D01*
X445485Y339419D01*
X444859Y338149D01*
X416560D01*
X415073Y337853D01*
X413813Y337011D01*
X407717Y330915D01*
X406875Y329655D01*
X406579Y328168D01*
Y325628D01*
X402844D01*
Y307848D01*
X418084D01*
Y325628D01*
X415167D01*
X414688Y326898D01*
X418169Y330379D01*
X440980D01*
Y292429D01*
X412669D01*
X411524Y293922D01*
X409949Y295130D01*
X408114Y295890D01*
X406146Y296149D01*
X404178Y295890D01*
X402343Y295130D01*
X402125Y294963D01*
X400986Y295524D01*
Y296084D01*
X397331D01*
Y300990D01*
X397035Y302477D01*
X396193Y303737D01*
X394029Y305901D01*
Y307848D01*
X397764D01*
Y325628D01*
X382524D01*
Y307848D01*
X386259D01*
Y304292D01*
X386555Y302805D01*
X387397Y301545D01*
X389561Y299381D01*
Y296084D01*
X385906D01*
Y286498D01*
X375072Y275664D01*
X359539D01*
X358314Y275774D01*
Y279544D01*
X350774D01*
Y282084D01*
X358314D01*
Y285274D01*
X359004D01*
Y289814D01*
Y294354D01*
X358314D01*
Y297544D01*
X343234D01*
Y294604D01*
X336984D01*
Y285024D01*
X337389D01*
Y274320D01*
X337685Y272833D01*
X338527Y271573D01*
X341068Y269033D01*
X342328Y268190D01*
X343814Y267895D01*
X376682D01*
X378168Y268190D01*
X379428Y269033D01*
X391400Y281004D01*
X400986D01*
Y281564D01*
X402125Y282125D01*
X402343Y281958D01*
X404178Y281198D01*
X406146Y280939D01*
X408114Y281198D01*
X409949Y281958D01*
X411524Y283166D01*
X412669Y284659D01*
X440980D01*
Y272466D01*
X459907D01*
X459969Y271999D01*
X460865Y269837D01*
X462290Y267980D01*
X463860Y266775D01*
X463532Y265505D01*
X302091D01*
X294969Y272627D01*
Y350520D01*
X294673Y352007D01*
X293831Y353267D01*
X287471Y359627D01*
X287957Y360800D01*
X302185D01*
Y324751D01*
D02*
G37*
G36*
X564654Y802311D02*
X564567Y801878D01*
Y779018D01*
X564863Y777531D01*
X565705Y776271D01*
X571293Y770683D01*
X572553Y769841D01*
X572897Y769773D01*
Y765556D01*
X584962D01*
Y773430D01*
Y781304D01*
X574365D01*
X573999Y781939D01*
X574365Y782574D01*
X599567D01*
Y786563D01*
X616627D01*
X647669Y755521D01*
X647421Y754923D01*
X647115Y752602D01*
X647421Y750281D01*
X648317Y748119D01*
X649742Y746262D01*
X651599Y744837D01*
X652294Y744549D01*
X652041Y743279D01*
X599567D01*
Y747268D01*
X590117D01*
Y748538D01*
X599567D01*
Y764286D01*
X572897D01*
Y748538D01*
X582347D01*
Y747268D01*
X572897D01*
Y731520D01*
X599567D01*
Y735509D01*
X680381D01*
X696139Y719751D01*
Y595265D01*
X694869Y594586D01*
X694765Y594656D01*
Y607568D01*
X694469Y609055D01*
X693627Y610315D01*
X673307Y630635D01*
X672047Y631477D01*
X670560Y631773D01*
X662940D01*
Y670680D01*
X608589D01*
Y672680D01*
X608159Y674842D01*
X606934Y676674D01*
X605102Y677898D01*
X602940Y678328D01*
X600779Y677898D01*
X598946Y676674D01*
X598575Y676119D01*
X597305D01*
X596934Y676674D01*
X595102Y677898D01*
X592940Y678328D01*
X590779Y677898D01*
X588946Y676674D01*
X588575Y676119D01*
X587305D01*
X586934Y676674D01*
X585102Y677898D01*
X582940Y678328D01*
X580779Y677898D01*
X578946Y676674D01*
X578575Y676119D01*
X577305D01*
X576934Y676674D01*
X575102Y677898D01*
X572940Y678328D01*
X570779Y677898D01*
X568946Y676674D01*
X568575Y676119D01*
X567305D01*
X566934Y676674D01*
X565102Y677898D01*
X562940Y678328D01*
X560779Y677898D01*
X558946Y676674D01*
X558575Y676119D01*
X557305D01*
X556934Y676674D01*
X555102Y677898D01*
X552940Y678328D01*
X550779Y677898D01*
X548946Y676674D01*
X548575Y676119D01*
X547305D01*
X546934Y676674D01*
X545102Y677898D01*
X542940Y678328D01*
X540779Y677898D01*
X538946Y676674D01*
X538575Y676119D01*
X537305D01*
X536934Y676674D01*
X535102Y677898D01*
X532940Y678328D01*
X530779Y677898D01*
X528946Y676674D01*
X528575Y676119D01*
X527305D01*
X526934Y676674D01*
X525101Y677898D01*
X522940Y678328D01*
X520778Y677898D01*
X518946Y676674D01*
X518575Y676119D01*
X517305D01*
X516934Y676674D01*
X515101Y677898D01*
X512940Y678328D01*
X510778Y677898D01*
X508946Y676674D01*
X508575Y676119D01*
X507305D01*
X506934Y676674D01*
X505101Y677898D01*
X502940Y678328D01*
X500778Y677898D01*
X498946Y676674D01*
X498575Y676119D01*
X497305D01*
X496934Y676674D01*
X495101Y677898D01*
X492940Y678328D01*
X490778Y677898D01*
X488946Y676674D01*
X488575Y676119D01*
X487305D01*
X486934Y676674D01*
X485101Y677898D01*
X482940Y678328D01*
X480778Y677898D01*
X478946Y676674D01*
X478575Y676119D01*
X477305D01*
X476934Y676674D01*
X475102Y677898D01*
X472940Y678328D01*
X470778Y677898D01*
X468946Y676674D01*
X468575Y676119D01*
X467305D01*
X466934Y676674D01*
X465102Y677898D01*
X462940Y678328D01*
X460778Y677898D01*
X458946Y676674D01*
X458575Y676119D01*
X457305D01*
X456934Y676674D01*
X455102Y677898D01*
X452940Y678328D01*
X450778Y677898D01*
X448946Y676674D01*
X448903Y676610D01*
X447458Y676518D01*
X446825Y677190D01*
Y699141D01*
X464574Y716890D01*
X501650D01*
Y773430D01*
X502920D01*
Y774700D01*
X557510D01*
Y803581D01*
X563611D01*
X564654Y802311D01*
D02*
G37*
G36*
X346946Y426686D02*
X347501Y426315D01*
Y425045D01*
X346946Y424674D01*
X345721Y422841D01*
X345291Y420680D01*
X345721Y418518D01*
X346946Y416686D01*
X348778Y415461D01*
X350940Y415031D01*
X352940D01*
Y360680D01*
X361543D01*
X362029Y359507D01*
X336273Y333751D01*
X335100Y334237D01*
Y338550D01*
X332080D01*
Y334010D01*
X329540D01*
Y338550D01*
X328850D01*
Y341740D01*
X321310D01*
Y343010D01*
X320040D01*
Y348050D01*
X315695D01*
Y396965D01*
X345525Y426795D01*
X346873D01*
X346946Y426686D01*
D02*
G37*
G36*
X597853Y816513D02*
X597367Y815340D01*
X587502D01*
Y808736D01*
X599567D01*
Y813140D01*
X600740Y813626D01*
X618864Y795503D01*
X618238Y794332D01*
X618236Y794333D01*
X599567D01*
Y798322D01*
X574365D01*
X573999Y798957D01*
X574365Y799592D01*
X584962D01*
Y807466D01*
Y815340D01*
X572897D01*
Y811351D01*
X557510D01*
Y827457D01*
X586909D01*
X597853Y816513D01*
D02*
G37*
G36*
X911860Y845820D02*
Y256540D01*
X483862D01*
X483737Y257810D01*
X484849Y258031D01*
X486109Y258873D01*
X493729Y266493D01*
X494571Y267753D01*
X494867Y269240D01*
Y272466D01*
X512560D01*
Y284813D01*
X513733Y285299D01*
X514759Y284273D01*
X516020Y283431D01*
X517506Y283135D01*
X528320D01*
Y279400D01*
X546100D01*
Y294640D01*
X528320D01*
Y290905D01*
X519115D01*
X512560Y297460D01*
Y308584D01*
X517845Y313869D01*
X528320D01*
Y299720D01*
X546100D01*
Y313869D01*
X564292D01*
X565795Y312366D01*
X567055Y311524D01*
X568542Y311228D01*
X584200D01*
X585687Y311524D01*
X586947Y312366D01*
X590481Y315901D01*
X591324Y317161D01*
X591619Y318648D01*
Y331618D01*
X609772Y349771D01*
X610946Y349285D01*
Y347199D01*
X603551Y339805D01*
X602709Y338545D01*
X602413Y337058D01*
Y298576D01*
X601143Y298324D01*
X601098Y298433D01*
X599489Y300531D01*
X597391Y302140D01*
X594949Y303152D01*
X593598Y303329D01*
Y293370D01*
Y283411D01*
X594949Y283588D01*
X597391Y284600D01*
X599489Y286209D01*
X601098Y288307D01*
X601143Y288416D01*
X602413Y288164D01*
Y279400D01*
X602709Y277913D01*
X603551Y276653D01*
X608435Y271770D01*
X607946Y270591D01*
X607601Y267970D01*
X607946Y265349D01*
X608958Y262907D01*
X610567Y260809D01*
X612665Y259200D01*
X615107Y258188D01*
X617728Y257843D01*
X620349Y258188D01*
X622791Y259200D01*
X624889Y260809D01*
X626498Y262907D01*
X627510Y265349D01*
X627855Y267970D01*
X627510Y270591D01*
X626498Y273033D01*
X624889Y275131D01*
X622791Y276740D01*
X620349Y277752D01*
X617728Y278097D01*
X615107Y277752D01*
X613928Y277263D01*
X610183Y281009D01*
Y284904D01*
X611453Y285530D01*
X612665Y284600D01*
X615107Y283588D01*
X617728Y283243D01*
X620349Y283588D01*
X621528Y284077D01*
X626411Y279193D01*
X627671Y278351D01*
X629158Y278055D01*
X637922D01*
X638174Y276785D01*
X638065Y276740D01*
X635967Y275131D01*
X634358Y273033D01*
X633346Y270591D01*
X633001Y267970D01*
X633346Y265349D01*
X634358Y262907D01*
X635967Y260809D01*
X638065Y259200D01*
X640507Y258188D01*
X643128Y257843D01*
X645749Y258188D01*
X648191Y259200D01*
X650289Y260809D01*
X651898Y262907D01*
X652910Y265349D01*
X653255Y267970D01*
X652910Y270591D01*
X651898Y273033D01*
X650289Y275131D01*
X648191Y276740D01*
X648082Y276785D01*
X648334Y278055D01*
X663322D01*
X663574Y276785D01*
X663465Y276740D01*
X661367Y275131D01*
X659758Y273033D01*
X658746Y270591D01*
X658569Y269240D01*
X668528D01*
X678487D01*
X678310Y270591D01*
X677298Y273033D01*
X675689Y275131D01*
X673591Y276740D01*
X673482Y276785D01*
X673734Y278055D01*
X677418D01*
X678905Y278351D01*
X680165Y279193D01*
X682705Y281733D01*
X683547Y282993D01*
X683843Y284480D01*
Y288164D01*
X685113Y288416D01*
X685158Y288307D01*
X686767Y286209D01*
X688865Y284600D01*
X691307Y283588D01*
X693928Y283243D01*
X696549Y283588D01*
X698991Y284600D01*
X701089Y286209D01*
X701982Y287374D01*
X703542Y287321D01*
X703881Y286813D01*
X712771Y277923D01*
X713279Y277584D01*
X713332Y276024D01*
X712167Y275131D01*
X710558Y273033D01*
X709546Y270591D01*
X709201Y267970D01*
X709546Y265349D01*
X710558Y262907D01*
X712167Y260809D01*
X714265Y259200D01*
X716707Y258188D01*
X719328Y257843D01*
X721949Y258188D01*
X724391Y259200D01*
X726489Y260809D01*
X728098Y262907D01*
X729110Y265349D01*
X729455Y267970D01*
X729110Y270591D01*
X728098Y273033D01*
X726489Y275131D01*
X725987Y275515D01*
X726418Y276785D01*
X737638D01*
X738069Y275515D01*
X737567Y275131D01*
X735958Y273033D01*
X734946Y270591D01*
X734769Y269240D01*
X744728D01*
X754687D01*
X754510Y270591D01*
X753498Y273033D01*
X751889Y275131D01*
X751387Y275515D01*
X751818Y276785D01*
X763038D01*
X763469Y275515D01*
X762967Y275131D01*
X761358Y273033D01*
X760346Y270591D01*
X760001Y267970D01*
X760346Y265349D01*
X761358Y262907D01*
X762967Y260809D01*
X765065Y259200D01*
X767507Y258188D01*
X770128Y257843D01*
X772749Y258188D01*
X775191Y259200D01*
X777289Y260809D01*
X778898Y262907D01*
X779910Y265349D01*
X780255Y267970D01*
X779910Y270591D01*
X778898Y273033D01*
X777289Y275131D01*
X776787Y275515D01*
X777218Y276785D01*
X788438D01*
X788869Y275515D01*
X788367Y275131D01*
X786758Y273033D01*
X785746Y270591D01*
X785401Y267970D01*
X785746Y265349D01*
X786758Y262907D01*
X788367Y260809D01*
X790465Y259200D01*
X792907Y258188D01*
X795528Y257843D01*
X798149Y258188D01*
X800591Y259200D01*
X802689Y260809D01*
X804298Y262907D01*
X805310Y265349D01*
X805655Y267970D01*
X805310Y270591D01*
X804298Y273033D01*
X802689Y275131D01*
X802187Y275515D01*
X802618Y276785D01*
X806619D01*
X811635Y271770D01*
X811146Y270591D01*
X810801Y267970D01*
X811146Y265349D01*
X812158Y262907D01*
X813767Y260809D01*
X815865Y259200D01*
X818307Y258188D01*
X820928Y257843D01*
X823549Y258188D01*
X825991Y259200D01*
X828089Y260809D01*
X829698Y262907D01*
X830710Y265349D01*
X831055Y267970D01*
X830710Y270591D01*
X829698Y273033D01*
X828089Y275131D01*
X825991Y276740D01*
X823549Y277752D01*
X820928Y278097D01*
X818307Y277752D01*
X817128Y277263D01*
X810975Y283417D01*
X809715Y284259D01*
X808228Y284555D01*
X802618D01*
X802187Y285825D01*
X802689Y286209D01*
X804298Y288307D01*
X805310Y290749D01*
X805487Y292100D01*
X795528D01*
X785569D01*
X785746Y290749D01*
X786758Y288307D01*
X788367Y286209D01*
X788869Y285825D01*
X788438Y284555D01*
X777218D01*
X776787Y285825D01*
X777289Y286209D01*
X778898Y288307D01*
X779910Y290749D01*
X780255Y293370D01*
X779910Y295991D01*
X778898Y298433D01*
X777289Y300531D01*
X775191Y302140D01*
X772749Y303152D01*
X770128Y303497D01*
X767507Y303152D01*
X765065Y302140D01*
X762967Y300531D01*
X761358Y298433D01*
X760346Y295991D01*
X760001Y293370D01*
X760346Y290749D01*
X761358Y288307D01*
X762967Y286209D01*
X763469Y285825D01*
X763038Y284555D01*
X751818D01*
X751387Y285825D01*
X751889Y286209D01*
X753498Y288307D01*
X754510Y290749D01*
X754855Y293370D01*
X754510Y295991D01*
X753498Y298433D01*
X751889Y300531D01*
X749791Y302140D01*
X747349Y303152D01*
X744728Y303497D01*
X742107Y303152D01*
X739665Y302140D01*
X737567Y300531D01*
X735958Y298433D01*
X734946Y295991D01*
X734601Y293370D01*
X734946Y290749D01*
X735958Y288307D01*
X737567Y286209D01*
X738069Y285825D01*
X737638Y284555D01*
X726418D01*
X725987Y285825D01*
X726489Y286209D01*
X728098Y288307D01*
X729110Y290749D01*
X729455Y293370D01*
X729110Y295991D01*
X728098Y298433D01*
X726489Y300531D01*
X724391Y302140D01*
X721949Y303152D01*
X719328Y303497D01*
X716707Y303152D01*
X714265Y302140D01*
X712167Y300531D01*
X711783Y300029D01*
X710513Y300460D01*
Y319139D01*
X711111Y319387D01*
X712968Y320812D01*
X714393Y322669D01*
X715289Y324831D01*
X715595Y327152D01*
X715289Y329473D01*
X714393Y331635D01*
X712968Y333492D01*
X711111Y334917D01*
X708949Y335813D01*
X706628Y336119D01*
X704307Y335813D01*
X702145Y334917D01*
X700288Y333492D01*
X699083Y331922D01*
X697813Y332250D01*
Y333671D01*
X705697Y341555D01*
X843449D01*
X887088Y297916D01*
Y283330D01*
X907168D01*
Y303410D01*
X892582D01*
X847805Y348187D01*
X846545Y349029D01*
X845058Y349325D01*
X704088D01*
X702601Y349029D01*
X701341Y348187D01*
X691181Y338027D01*
X690339Y336767D01*
X690043Y335280D01*
Y302628D01*
X688865Y302140D01*
X686767Y300531D01*
X685158Y298433D01*
X685113Y298324D01*
X683843Y298576D01*
Y329692D01*
X683547Y331179D01*
X682705Y332439D01*
X655637Y359507D01*
X656123Y360680D01*
X662940D01*
Y415031D01*
X664940D01*
X667102Y415461D01*
X668707Y416534D01*
X669977Y416135D01*
Y378853D01*
X669379Y378605D01*
X667522Y377180D01*
X666097Y375323D01*
X665201Y373161D01*
X664895Y370840D01*
X665201Y368519D01*
X666097Y366357D01*
X667522Y364500D01*
X669379Y363075D01*
X671541Y362179D01*
X673862Y361873D01*
X676183Y362179D01*
X678345Y363075D01*
X680202Y364500D01*
X681627Y366357D01*
X682523Y368519D01*
X682829Y370840D01*
X682523Y373161D01*
X681627Y375323D01*
X680202Y377180D01*
X678345Y378605D01*
X677747Y378853D01*
Y434224D01*
X678920Y434710D01*
X732981Y380649D01*
X734241Y379807D01*
X735728Y379512D01*
X867012D01*
X868499Y379807D01*
X869759Y380649D01*
X882603Y393493D01*
X883445Y394753D01*
X883741Y396240D01*
Y440164D01*
X883445Y441651D01*
X882603Y442911D01*
X879047Y446467D01*
X878450Y446866D01*
Y450260D01*
X856370D01*
Y437180D01*
X875971D01*
Y416260D01*
X868680D01*
Y409720D01*
X867410D01*
Y408450D01*
X856370D01*
Y407186D01*
X828072Y405743D01*
X827151Y406618D01*
Y411861D01*
X820423D01*
X818971Y425654D01*
Y433959D01*
X824611D01*
Y443230D01*
X815086D01*
X805561D01*
Y433959D01*
X811201D01*
Y425450D01*
X811242Y425248D01*
X811223Y425043D01*
X812511Y412805D01*
X811661Y411861D01*
X808101D01*
Y402590D01*
X817626D01*
Y401320D01*
X818896D01*
Y390779D01*
X827151D01*
Y397916D01*
X867608Y399980D01*
X868248Y400142D01*
X868897Y400271D01*
X868980Y400327D01*
X869078Y400351D01*
X869607Y400746D01*
X870157Y401113D01*
X870213Y401197D01*
X870293Y401257D01*
X870632Y401824D01*
X870999Y402373D01*
X871019Y402472D01*
X871070Y402558D01*
X871161Y403180D01*
X875971D01*
Y397849D01*
X865403Y387281D01*
X737337D01*
X734787Y389831D01*
X735242Y391172D01*
X736889Y391389D01*
X739051Y392285D01*
X740908Y393710D01*
X742333Y395567D01*
X742581Y396165D01*
X748284D01*
Y392684D01*
X766064D01*
Y407924D01*
X748284D01*
Y403935D01*
X742581D01*
X742333Y404533D01*
X740908Y406390D01*
X739051Y407815D01*
X736889Y408711D01*
X734568Y409017D01*
X732247Y408711D01*
X730085Y407815D01*
X728228Y406390D01*
X726803Y404533D01*
X725907Y402371D01*
X725690Y400724D01*
X724349Y400269D01*
X683605Y441013D01*
X684324Y442089D01*
X684495Y442019D01*
X686816Y441713D01*
X689137Y442019D01*
X691299Y442914D01*
X693156Y444339D01*
X694581Y446197D01*
X695477Y448359D01*
X695783Y450680D01*
X695477Y453001D01*
X694581Y455163D01*
X693156Y457020D01*
X691299Y458445D01*
X689137Y459341D01*
X686816Y459646D01*
X684495Y459341D01*
X683059Y458746D01*
X682048Y459702D01*
X682243Y460680D01*
Y506796D01*
X753110D01*
Y501650D01*
X760730D01*
Y509270D01*
Y516890D01*
X753110D01*
Y514565D01*
X669007D01*
X668934Y514674D01*
X668379Y515045D01*
Y516315D01*
X668934Y516686D01*
X670159Y518519D01*
X670589Y520680D01*
X670159Y522842D01*
X668934Y524674D01*
X668379Y525045D01*
Y526315D01*
X668934Y526686D01*
X670159Y528519D01*
X670589Y530680D01*
X670159Y532842D01*
X668934Y534674D01*
X668379Y535045D01*
Y536315D01*
X668934Y536686D01*
X670159Y538519D01*
X670589Y540680D01*
X670159Y542842D01*
X668934Y544674D01*
X668379Y545045D01*
Y546315D01*
X668934Y546686D01*
X670159Y548518D01*
X670589Y550680D01*
X670159Y552842D01*
X668934Y554674D01*
X668379Y555045D01*
Y556315D01*
X668934Y556686D01*
X670159Y558518D01*
X670589Y560680D01*
X670159Y562842D01*
X668934Y564674D01*
X668379Y565045D01*
Y566315D01*
X668934Y566686D01*
X669592Y567671D01*
X670275Y567726D01*
X671066Y567591D01*
X672348Y565922D01*
X674205Y564497D01*
X676367Y563601D01*
X678688Y563295D01*
X681009Y563601D01*
X683171Y564497D01*
X685028Y565922D01*
X686453Y567779D01*
X687349Y569941D01*
X687655Y572262D01*
X687349Y574583D01*
X686453Y576745D01*
X685028Y578602D01*
X683171Y580027D01*
X681009Y580923D01*
X678688Y581229D01*
X676367Y580923D01*
X675769Y580675D01*
X673017Y583427D01*
X671757Y584269D01*
X670270Y584565D01*
X669007D01*
X668934Y584674D01*
X668379Y585045D01*
Y586315D01*
X668934Y586686D01*
X670159Y588518D01*
X670589Y590680D01*
X670159Y592842D01*
X668934Y594674D01*
X668379Y595045D01*
Y596315D01*
X668934Y596686D01*
X669197Y597080D01*
X669253Y597091D01*
X670513Y597933D01*
X674497Y601917D01*
X675339Y603178D01*
X675635Y604664D01*
Y614680D01*
X675425Y615733D01*
X676596Y616358D01*
X686995Y605959D01*
Y591820D01*
X687291Y590333D01*
X688133Y589073D01*
X707945Y569261D01*
X709205Y568419D01*
X710692Y568123D01*
X731520D01*
X733007Y568419D01*
X734267Y569261D01*
X742210Y577204D01*
X743383Y576718D01*
Y541274D01*
X743679Y539787D01*
X744521Y538527D01*
X753110Y529938D01*
Y521970D01*
X770890D01*
Y525705D01*
X793750D01*
X795237Y526001D01*
X796497Y526843D01*
X806944Y537290D01*
X824155D01*
Y520023D01*
X817287Y513155D01*
X770890D01*
Y516890D01*
X763270D01*
Y509270D01*
Y501650D01*
X770890D01*
Y505385D01*
X802047D01*
X811201Y496231D01*
Y455041D01*
X805561D01*
Y445770D01*
X815086D01*
X824611D01*
Y455041D01*
X818971D01*
Y497840D01*
X818675Y499327D01*
X817833Y500587D01*
X814208Y504212D01*
X814694Y505385D01*
X818896D01*
X820383Y505681D01*
X821643Y506523D01*
X830787Y515667D01*
X831629Y516927D01*
X831925Y518414D01*
Y553720D01*
X831629Y555207D01*
X830787Y556467D01*
X806657Y580597D01*
X805397Y581439D01*
X803910Y581735D01*
X772235D01*
Y617220D01*
X771939Y618707D01*
X771097Y619967D01*
X768838Y622225D01*
X769364Y623495D01*
X793411D01*
X864075Y552831D01*
X863915Y551568D01*
X863726Y551384D01*
X862192Y550208D01*
X860984Y548633D01*
X860224Y546798D01*
X860132Y546100D01*
X876300D01*
Y552435D01*
X875459D01*
X805572Y622322D01*
X806058Y623495D01*
X868680D01*
X870167Y623791D01*
X871427Y624633D01*
X879047Y632253D01*
X879195Y632475D01*
X886300D01*
X888268Y632734D01*
X890102Y633494D01*
X891678Y634702D01*
X892886Y636278D01*
X893646Y638112D01*
X893738Y638810D01*
X858862D01*
X858954Y638112D01*
X859714Y636278D01*
X860922Y634702D01*
X862497Y633494D01*
X864332Y632734D01*
X865846Y632535D01*
X865763Y631265D01*
X767715D01*
Y636905D01*
X759460D01*
Y627380D01*
X756920D01*
Y636905D01*
X751153D01*
Y647869D01*
X754159Y650875D01*
X762221D01*
X775763Y637333D01*
X777023Y636491D01*
X778510Y636195D01*
X790180D01*
Y632540D01*
X825260D01*
Y647620D01*
X790180D01*
Y643965D01*
X780119D01*
X767715Y656369D01*
Y669925D01*
X753405D01*
X752919Y671098D01*
X790274Y708453D01*
X797767Y715946D01*
X798609Y717206D01*
X798905Y718693D01*
Y751920D01*
X822720D01*
Y767000D01*
X787640D01*
Y751920D01*
X791135D01*
Y720302D01*
X785918Y715085D01*
X767080D01*
Y718820D01*
X749300D01*
Y703580D01*
X767080D01*
Y707315D01*
X776489D01*
X776975Y706142D01*
X745214Y674381D01*
X744041Y674867D01*
Y719751D01*
X748515Y724225D01*
X749300Y723900D01*
Y723900D01*
X756920D01*
Y731520D01*
X758190D01*
Y732790D01*
X767080D01*
Y739140D01*
X762075D01*
Y760391D01*
X769959Y768275D01*
X825161D01*
X836723Y756713D01*
X837983Y755871D01*
X839470Y755575D01*
X857237D01*
X858382Y754082D01*
X859958Y752874D01*
X861792Y752114D01*
X863760Y751855D01*
X869875D01*
Y701040D01*
X870171Y699553D01*
X871013Y698293D01*
X872415Y696891D01*
Y647685D01*
X866300D01*
X864332Y647426D01*
X862497Y646666D01*
X860922Y645458D01*
X859714Y643883D01*
X858954Y642048D01*
X858862Y641350D01*
X893738D01*
X893646Y642048D01*
X892886Y643883D01*
X891678Y645458D01*
X890102Y646666D01*
X888268Y647426D01*
X886300Y647685D01*
X880185D01*
Y698500D01*
X879889Y699987D01*
X879047Y701247D01*
X877645Y702649D01*
Y751855D01*
X883760D01*
X885728Y752114D01*
X887562Y752874D01*
X889138Y754082D01*
X890346Y755658D01*
X891106Y757492D01*
X891198Y758190D01*
X873760D01*
Y759460D01*
X872490D01*
Y767065D01*
X871649D01*
X851107Y787607D01*
X849847Y788449D01*
X848360Y788745D01*
X735343D01*
X734198Y790238D01*
X732623Y791446D01*
X730788Y792206D01*
X728820Y792465D01*
X720090D01*
Y784860D01*
Y777255D01*
X728820D01*
X730788Y777514D01*
X732623Y778274D01*
X734198Y779482D01*
X735343Y780975D01*
X846751D01*
X860265Y767461D01*
X860105Y766198D01*
X859916Y766014D01*
X858382Y764838D01*
X857237Y763345D01*
X841079D01*
X829517Y774907D01*
X828257Y775749D01*
X826770Y776045D01*
X768350D01*
X766863Y775749D01*
X765603Y774907D01*
X755443Y764747D01*
X754601Y763487D01*
X754305Y762000D01*
Y739140D01*
X749300D01*
Y735202D01*
X748829Y735109D01*
X747569Y734267D01*
X737409Y724107D01*
X736567Y722847D01*
X736271Y721360D01*
Y673175D01*
X730250D01*
Y676910D01*
X722630D01*
Y669290D01*
X721360D01*
Y668020D01*
X712470D01*
Y661670D01*
X717475D01*
Y646007D01*
X714803Y643335D01*
X713961Y642075D01*
X713665Y640588D01*
Y623570D01*
X708989D01*
Y730250D01*
X708693Y731737D01*
X707851Y732997D01*
X664701Y776147D01*
X665187Y777320D01*
X667780D01*
Y792400D01*
X632954D01*
X591292Y834061D01*
X591296Y834180D01*
X591691Y835331D01*
X628565D01*
X681783Y782113D01*
X683043Y781271D01*
X684530Y780975D01*
X702297D01*
X703442Y779482D01*
X705017Y778274D01*
X706852Y777514D01*
X708820Y777255D01*
X717550D01*
Y784860D01*
Y792465D01*
X708820D01*
X706852Y792206D01*
X705017Y791446D01*
X703442Y790238D01*
X702297Y788745D01*
X686139D01*
X632921Y841963D01*
X631661Y842805D01*
X630174Y843101D01*
X363474D01*
X361987Y842805D01*
X360727Y841963D01*
X344471Y825707D01*
X343629Y824447D01*
X343333Y822960D01*
Y733129D01*
X335449Y725245D01*
X332740D01*
Y728980D01*
X325120D01*
Y721360D01*
X323850D01*
Y720090D01*
X314960D01*
Y713740D01*
X319965D01*
Y708660D01*
X314960D01*
Y702310D01*
X323850D01*
Y701040D01*
X325120D01*
Y693420D01*
X332740D01*
Y697155D01*
X345171D01*
X353055Y689271D01*
Y670680D01*
X352940D01*
Y616329D01*
X350940D01*
X348778Y615899D01*
X346946Y614674D01*
X345722Y612842D01*
X345292Y610680D01*
X345722Y608518D01*
X346946Y606686D01*
X347010Y606643D01*
X347102Y605198D01*
X346430Y604565D01*
X326729D01*
X310463Y620831D01*
Y648208D01*
X314198D01*
Y665988D01*
X298958D01*
Y648208D01*
X302693D01*
Y619222D01*
X302989Y617735D01*
X303831Y616475D01*
X322373Y597933D01*
X323633Y597091D01*
X325120Y596795D01*
X346873D01*
X346946Y596686D01*
X347501Y596315D01*
Y595045D01*
X346946Y594674D01*
X345722Y592842D01*
X345292Y590680D01*
X345722Y588518D01*
X346946Y586686D01*
X347501Y586315D01*
Y585045D01*
X346946Y584674D01*
X345722Y582842D01*
X345292Y580680D01*
X345722Y578518D01*
X346946Y576686D01*
X347501Y576315D01*
Y575045D01*
X346946Y574674D01*
X345722Y572842D01*
X345292Y570680D01*
X345722Y568518D01*
X346946Y566686D01*
X347501Y566315D01*
Y565045D01*
X346946Y564674D01*
X345722Y562842D01*
X345292Y560680D01*
X345722Y558518D01*
X346946Y556686D01*
X347501Y556315D01*
Y555045D01*
X346946Y554674D01*
X345722Y552842D01*
X345292Y550680D01*
X345722Y548518D01*
X346946Y546686D01*
X347501Y546315D01*
Y545045D01*
X346946Y544674D01*
X345722Y542842D01*
X345292Y540680D01*
X345722Y538519D01*
X346946Y536686D01*
X347010Y536643D01*
X347102Y535198D01*
X346430Y534565D01*
X311923D01*
X301647Y544840D01*
X302136Y546019D01*
X302481Y548640D01*
X302136Y551261D01*
X301124Y553703D01*
X299515Y555801D01*
X297417Y557410D01*
X294975Y558422D01*
X292354Y558767D01*
X289733Y558422D01*
X287291Y557410D01*
X285193Y555801D01*
X283584Y553703D01*
X282572Y551261D01*
X282227Y548640D01*
X282572Y546019D01*
X283584Y543577D01*
X285193Y541479D01*
X287291Y539870D01*
X289733Y538858D01*
X292354Y538513D01*
X294975Y538858D01*
X296154Y539347D01*
X307567Y527933D01*
X308827Y527091D01*
X310314Y526796D01*
X346873D01*
X346946Y526686D01*
X347501Y526315D01*
Y525045D01*
X346946Y524674D01*
X345722Y522842D01*
X345292Y520680D01*
X345722Y518519D01*
X346946Y516686D01*
X347010Y516643D01*
X347102Y515198D01*
X346430Y514565D01*
X299516D01*
X299108Y515768D01*
X299515Y516079D01*
X301124Y518177D01*
X302136Y520619D01*
X302481Y523240D01*
X302136Y525861D01*
X301124Y528303D01*
X299515Y530401D01*
X297417Y532010D01*
X294975Y533022D01*
X292354Y533367D01*
X289733Y533022D01*
X287291Y532010D01*
X285193Y530401D01*
X283584Y528303D01*
X282572Y525861D01*
X282333Y524041D01*
X280992Y523586D01*
X279848Y524729D01*
Y556041D01*
X288554Y564747D01*
X289733Y564258D01*
X292354Y563913D01*
X294975Y564258D01*
X297417Y565270D01*
X299515Y566879D01*
X301124Y568977D01*
X302136Y571419D01*
X302481Y574040D01*
X302136Y576661D01*
X301124Y579103D01*
X299515Y581201D01*
X297417Y582810D01*
X294975Y583822D01*
X292354Y584167D01*
X289733Y583822D01*
X287291Y582810D01*
X285193Y581201D01*
X283584Y579103D01*
X282572Y576661D01*
X282227Y574040D01*
X282572Y571419D01*
X283061Y570240D01*
X273217Y560397D01*
X272375Y559137D01*
X272079Y557650D01*
Y523120D01*
X272375Y521633D01*
X273217Y520373D01*
X285657Y507933D01*
X286337Y507479D01*
X286473Y505990D01*
X286469Y505979D01*
X285193Y505001D01*
X283584Y502903D01*
X282572Y500461D01*
X282227Y497840D01*
X282572Y495219D01*
X283584Y492777D01*
X285193Y490679D01*
X287291Y489070D01*
X289733Y488058D01*
X292354Y487713D01*
X294975Y488058D01*
X297417Y489070D01*
X299515Y490679D01*
X301124Y492777D01*
X302136Y495219D01*
X302481Y497840D01*
X302136Y500461D01*
X301124Y502903D01*
X299515Y505001D01*
X298831Y505526D01*
X299262Y506796D01*
X346873D01*
X346946Y506686D01*
X347501Y506315D01*
Y505045D01*
X346946Y504674D01*
X345722Y502842D01*
X345292Y500680D01*
X345722Y498519D01*
X346946Y496686D01*
X347501Y496315D01*
Y495045D01*
X346946Y494674D01*
X345722Y492842D01*
X345292Y490680D01*
X345722Y488519D01*
X346946Y486686D01*
X347501Y486315D01*
Y485045D01*
X346946Y484674D01*
X345722Y482841D01*
X345292Y480680D01*
X345722Y478518D01*
X346946Y476686D01*
X347010Y476643D01*
X347102Y475198D01*
X346430Y474564D01*
X314724D01*
X313237Y474269D01*
X311977Y473427D01*
X302175Y463625D01*
X299444D01*
X299013Y464895D01*
X299515Y465279D01*
X301124Y467377D01*
X302136Y469819D01*
X302481Y472440D01*
X302136Y475061D01*
X301124Y477503D01*
X299515Y479601D01*
X297417Y481210D01*
X294975Y482222D01*
X292354Y482567D01*
X289733Y482222D01*
X287291Y481210D01*
X285193Y479601D01*
X283584Y477503D01*
X282572Y475061D01*
X282227Y472440D01*
X282572Y469819D01*
X283061Y468640D01*
X268017Y453597D01*
X267175Y452337D01*
X266879Y450850D01*
Y284480D01*
X267175Y282993D01*
X268017Y281733D01*
X272511Y277239D01*
X272263Y276641D01*
X271957Y274320D01*
X272263Y271999D01*
X273159Y269837D01*
X274584Y267980D01*
X276441Y266555D01*
X278603Y265659D01*
X280924Y265353D01*
X283245Y265659D01*
X285407Y266555D01*
X287093Y267848D01*
X287435Y267964D01*
X288762Y267846D01*
X297735Y258873D01*
X298995Y258031D01*
X300107Y257810D01*
X299982Y256540D01*
X259080D01*
X256540Y259080D01*
Y845820D01*
X259080Y848360D01*
X909320D01*
X911860Y845820D01*
D02*
G37*
%LPC*%
G36*
X364564Y294354D02*
X361544D01*
Y291084D01*
X364564D01*
Y294354D01*
D02*
G37*
G36*
Y288544D02*
X361544D01*
Y285274D01*
X364564D01*
Y288544D01*
D02*
G37*
G36*
X846328Y303497D02*
X843707Y303152D01*
X841265Y302140D01*
X839167Y300531D01*
X837558Y298433D01*
X836546Y295991D01*
X836201Y293370D01*
X836546Y290749D01*
X837558Y288307D01*
X839167Y286209D01*
X841265Y284600D01*
X843707Y283588D01*
X846328Y283243D01*
X848949Y283588D01*
X851391Y284600D01*
X853489Y286209D01*
X855098Y288307D01*
X856110Y290749D01*
X856455Y293370D01*
X856110Y295991D01*
X855098Y298433D01*
X853489Y300531D01*
X851391Y302140D01*
X848949Y303152D01*
X846328Y303497D01*
D02*
G37*
G36*
X871728D02*
X869107Y303152D01*
X866665Y302140D01*
X864567Y300531D01*
X862958Y298433D01*
X861946Y295991D01*
X861601Y293370D01*
X861946Y290749D01*
X862958Y288307D01*
X864567Y286209D01*
X866665Y284600D01*
X869107Y283588D01*
X871728Y283243D01*
X874349Y283588D01*
X876791Y284600D01*
X878889Y286209D01*
X880498Y288307D01*
X881510Y290749D01*
X881855Y293370D01*
X881510Y295991D01*
X880498Y298433D01*
X878889Y300531D01*
X876791Y302140D01*
X874349Y303152D01*
X871728Y303497D01*
D02*
G37*
G36*
X591058Y292100D02*
X582369D01*
X582546Y290749D01*
X583558Y288307D01*
X585167Y286209D01*
X587265Y284600D01*
X589707Y283588D01*
X591058Y283411D01*
Y292100D01*
D02*
G37*
G36*
X349504Y303854D02*
X343234D01*
Y300084D01*
X349504D01*
Y303854D01*
D02*
G37*
G36*
X358314D02*
X352044D01*
Y300084D01*
X358314D01*
Y303854D01*
D02*
G37*
G36*
X796798Y303329D02*
Y294640D01*
X805487D01*
X805310Y295991D01*
X804298Y298433D01*
X802689Y300531D01*
X800591Y302140D01*
X798149Y303152D01*
X796798Y303329D01*
D02*
G37*
G36*
X591058D02*
X589707Y303152D01*
X587265Y302140D01*
X585167Y300531D01*
X583558Y298433D01*
X582546Y295991D01*
X582369Y294640D01*
X591058D01*
Y303329D01*
D02*
G37*
G36*
X794258D02*
X792907Y303152D01*
X790465Y302140D01*
X788367Y300531D01*
X786758Y298433D01*
X785746Y295991D01*
X785569Y294640D01*
X794258D01*
Y303329D01*
D02*
G37*
G36*
X897128Y278097D02*
X894507Y277752D01*
X892065Y276740D01*
X889967Y275131D01*
X888358Y273033D01*
X887346Y270591D01*
X887001Y267970D01*
X887346Y265349D01*
X888358Y262907D01*
X889967Y260809D01*
X892065Y259200D01*
X894507Y258188D01*
X897128Y257843D01*
X899749Y258188D01*
X902191Y259200D01*
X904289Y260809D01*
X905898Y262907D01*
X906910Y265349D01*
X907255Y267970D01*
X906910Y270591D01*
X905898Y273033D01*
X904289Y275131D01*
X902191Y276740D01*
X899749Y277752D01*
X897128Y278097D01*
D02*
G37*
G36*
X667258Y266700D02*
X658569D01*
X658746Y265349D01*
X659758Y262907D01*
X661367Y260809D01*
X663465Y259200D01*
X665907Y258188D01*
X667258Y258011D01*
Y266700D01*
D02*
G37*
G36*
X743458D02*
X734769D01*
X734946Y265349D01*
X735958Y262907D01*
X737567Y260809D01*
X739665Y259200D01*
X742107Y258188D01*
X743458Y258011D01*
Y266700D01*
D02*
G37*
G36*
X592328Y278097D02*
X589707Y277752D01*
X587265Y276740D01*
X585167Y275131D01*
X583558Y273033D01*
X582546Y270591D01*
X582201Y267970D01*
X582546Y265349D01*
X583558Y262907D01*
X585167Y260809D01*
X587265Y259200D01*
X589707Y258188D01*
X592328Y257843D01*
X594949Y258188D01*
X597391Y259200D01*
X599489Y260809D01*
X601098Y262907D01*
X602110Y265349D01*
X602455Y267970D01*
X602110Y270591D01*
X601098Y273033D01*
X599489Y275131D01*
X597391Y276740D01*
X594949Y277752D01*
X592328Y278097D01*
D02*
G37*
G36*
X693928D02*
X691307Y277752D01*
X688865Y276740D01*
X686767Y275131D01*
X685158Y273033D01*
X684146Y270591D01*
X683801Y267970D01*
X684146Y265349D01*
X685158Y262907D01*
X686767Y260809D01*
X688865Y259200D01*
X691307Y258188D01*
X693928Y257843D01*
X696549Y258188D01*
X698991Y259200D01*
X701089Y260809D01*
X702698Y262907D01*
X703710Y265349D01*
X704055Y267970D01*
X703710Y270591D01*
X702698Y273033D01*
X701089Y275131D01*
X698991Y276740D01*
X696549Y277752D01*
X693928Y278097D01*
D02*
G37*
G36*
X871728D02*
X869107Y277752D01*
X866665Y276740D01*
X864567Y275131D01*
X862958Y273033D01*
X861946Y270591D01*
X861601Y267970D01*
X861946Y265349D01*
X862958Y262907D01*
X864567Y260809D01*
X866665Y259200D01*
X869107Y258188D01*
X871728Y257843D01*
X874349Y258188D01*
X876791Y259200D01*
X878889Y260809D01*
X880498Y262907D01*
X881510Y265349D01*
X881855Y267970D01*
X881510Y270591D01*
X880498Y273033D01*
X878889Y275131D01*
X876791Y276740D01*
X874349Y277752D01*
X871728Y278097D01*
D02*
G37*
G36*
X845058Y266700D02*
X836369D01*
X836546Y265349D01*
X837558Y262907D01*
X839167Y260809D01*
X841265Y259200D01*
X843707Y258188D01*
X845058Y258011D01*
Y266700D01*
D02*
G37*
G36*
Y277929D02*
X843707Y277752D01*
X841265Y276740D01*
X839167Y275131D01*
X837558Y273033D01*
X836546Y270591D01*
X836369Y269240D01*
X845058D01*
Y277929D01*
D02*
G37*
G36*
X847598D02*
Y269240D01*
X856287D01*
X856110Y270591D01*
X855098Y273033D01*
X853489Y275131D01*
X851391Y276740D01*
X848949Y277752D01*
X847598Y277929D01*
D02*
G37*
G36*
X820928Y303497D02*
X818307Y303152D01*
X815865Y302140D01*
X813767Y300531D01*
X812158Y298433D01*
X811146Y295991D01*
X810801Y293370D01*
X811146Y290749D01*
X812158Y288307D01*
X813767Y286209D01*
X815865Y284600D01*
X818307Y283588D01*
X820928Y283243D01*
X823549Y283588D01*
X825991Y284600D01*
X828089Y286209D01*
X829698Y288307D01*
X830710Y290749D01*
X831055Y293370D01*
X830710Y295991D01*
X829698Y298433D01*
X828089Y300531D01*
X825991Y302140D01*
X823549Y303152D01*
X820928Y303497D01*
D02*
G37*
G36*
X678487Y266700D02*
X669798D01*
Y258011D01*
X671149Y258188D01*
X673591Y259200D01*
X675689Y260809D01*
X677298Y262907D01*
X678310Y265349D01*
X678487Y266700D01*
D02*
G37*
G36*
X754687D02*
X745998D01*
Y258011D01*
X747349Y258188D01*
X749791Y259200D01*
X751889Y260809D01*
X753498Y262907D01*
X754510Y265349D01*
X754687Y266700D01*
D02*
G37*
G36*
X856287D02*
X847598D01*
Y258011D01*
X848949Y258188D01*
X851391Y259200D01*
X853489Y260809D01*
X855098Y262907D01*
X856110Y265349D01*
X856287Y266700D01*
D02*
G37*
G36*
X729996Y740487D02*
X727675Y740181D01*
X725513Y739285D01*
X723656Y737860D01*
X722231Y736003D01*
X721335Y733841D01*
X721029Y731520D01*
X721335Y729199D01*
X722231Y727037D01*
X723656Y725180D01*
X725513Y723755D01*
X726111Y723507D01*
Y697230D01*
X712470D01*
Y681990D01*
X730250D01*
Y685776D01*
X731483Y686021D01*
X732743Y686863D01*
X733585Y688123D01*
X733881Y689610D01*
Y723507D01*
X734479Y723755D01*
X736336Y725180D01*
X737761Y727037D01*
X738657Y729199D01*
X738963Y731520D01*
X738657Y733841D01*
X737761Y736003D01*
X736336Y737860D01*
X734479Y739285D01*
X732317Y740181D01*
X729996Y740487D01*
D02*
G37*
G36*
X322580Y699770D02*
X314960D01*
Y693420D01*
X322580D01*
Y699770D01*
D02*
G37*
G36*
X557510Y772160D02*
X504190D01*
Y716890D01*
X557510D01*
Y772160D01*
D02*
G37*
G36*
X293624Y609399D02*
Y600710D01*
X302313D01*
X302136Y602061D01*
X301124Y604503D01*
X299515Y606601D01*
X297417Y608210D01*
X294975Y609222D01*
X293624Y609399D01*
D02*
G37*
G36*
X334518Y665988D02*
X319278D01*
Y648208D01*
X334518D01*
Y665988D01*
D02*
G37*
G36*
X720090Y676910D02*
X712470D01*
Y670560D01*
X720090D01*
Y676910D01*
D02*
G37*
G36*
X599567Y772160D02*
X587502D01*
Y765556D01*
X599567D01*
Y772160D01*
D02*
G37*
G36*
X587502Y781304D02*
Y774700D01*
X599567D01*
Y781304D01*
X587502D01*
D02*
G37*
G36*
X599567Y806196D02*
X587502D01*
Y799592D01*
X599567D01*
Y806196D01*
D02*
G37*
G36*
X322580Y728980D02*
X314960D01*
Y722630D01*
X322580D01*
Y728980D01*
D02*
G37*
G36*
X767080Y730250D02*
X759460D01*
Y723900D01*
X767080D01*
Y730250D01*
D02*
G37*
G36*
X883760Y767065D02*
X875030D01*
Y760730D01*
X891198D01*
X891106Y761428D01*
X890346Y763262D01*
X889138Y764838D01*
X887562Y766046D01*
X885728Y766806D01*
X883760Y767065D01*
D02*
G37*
G36*
X866140Y416260D02*
X856370D01*
Y410990D01*
X866140D01*
Y416260D01*
D02*
G37*
G36*
X727710Y443230D02*
X709930D01*
Y427990D01*
X727710D01*
Y443230D01*
D02*
G37*
G36*
Y463550D02*
X709930D01*
Y448310D01*
X727710D01*
Y452045D01*
X775589D01*
Y433959D01*
X794639D01*
Y455041D01*
X788423D01*
X787861Y455883D01*
X785067Y458677D01*
X783807Y459519D01*
X782320Y459815D01*
X727710D01*
Y463550D01*
D02*
G37*
G36*
X328850Y348050D02*
X322580D01*
Y344280D01*
X328850D01*
Y348050D01*
D02*
G37*
G36*
X766064Y428244D02*
X748284D01*
Y413004D01*
X766064D01*
Y416485D01*
X780711D01*
X783769Y413427D01*
Y411861D01*
X778129D01*
Y390779D01*
X797179D01*
Y411861D01*
X791539D01*
Y415036D01*
X791243Y416523D01*
X790401Y417783D01*
X785067Y423117D01*
X783807Y423959D01*
X782320Y424255D01*
X766064D01*
Y428244D01*
D02*
G37*
G36*
X816356Y400050D02*
X808101D01*
Y390779D01*
X816356D01*
Y400050D01*
D02*
G37*
G36*
X291084Y598170D02*
X282395D01*
X282572Y596819D01*
X283584Y594377D01*
X285193Y592279D01*
X287291Y590670D01*
X289733Y589658D01*
X291084Y589481D01*
Y598170D01*
D02*
G37*
G36*
X302313D02*
X293624D01*
Y589481D01*
X294975Y589658D01*
X297417Y590670D01*
X299515Y592279D01*
X301124Y594377D01*
X302136Y596819D01*
X302313Y598170D01*
D02*
G37*
G36*
X291084Y609399D02*
X289733Y609222D01*
X287291Y608210D01*
X285193Y606601D01*
X283584Y604503D01*
X282572Y602061D01*
X282395Y600710D01*
X291084D01*
Y609399D01*
D02*
G37*
G36*
X876300Y543560D02*
X860132D01*
X860224Y542862D01*
X860984Y541027D01*
X862192Y539452D01*
X863767Y538244D01*
X865602Y537484D01*
X867570Y537225D01*
X876300D01*
Y543560D01*
D02*
G37*
G36*
X895008D02*
X878840D01*
Y537225D01*
X887570D01*
X889538Y537484D01*
X891373Y538244D01*
X892948Y539452D01*
X894156Y541027D01*
X894916Y542862D01*
X895008Y543560D01*
D02*
G37*
G36*
X887570Y552435D02*
X878840D01*
Y546100D01*
X895008D01*
X894916Y546798D01*
X894156Y548633D01*
X892948Y550208D01*
X891373Y551416D01*
X889538Y552176D01*
X887570Y552435D01*
D02*
G37*
%LPD*%
D10*
X867410Y443720D02*
D03*
Y409720D02*
D03*
D11*
X787654Y401320D02*
D03*
X817626D02*
D03*
X785114Y444500D02*
D03*
X815086D02*
D03*
D12*
X323850Y721360D02*
D03*
Y701040D02*
D03*
X757174Y420624D02*
D03*
Y400304D02*
D03*
X717550Y595630D02*
D03*
Y615950D02*
D03*
X721360Y669290D02*
D03*
Y689610D02*
D03*
X758190Y711200D02*
D03*
Y731520D02*
D03*
Y598170D02*
D03*
Y577850D02*
D03*
X762000Y529590D02*
D03*
Y509270D02*
D03*
X718820Y455930D02*
D03*
Y435610D02*
D03*
X537210Y287020D02*
D03*
Y307340D02*
D03*
D13*
X718820Y784860D02*
D03*
X873760Y759460D02*
D03*
X877570Y544830D02*
D03*
X876300Y640080D02*
D03*
D14*
X650240Y784860D02*
D03*
X805180Y759460D02*
D03*
X808990Y544830D02*
D03*
X807720Y640080D02*
D03*
D15*
X414890Y746760D02*
D03*
X363390D02*
D03*
X502520Y302006D02*
D03*
X451020D02*
D03*
D16*
X586232Y807466D02*
D03*
Y790448D02*
D03*
Y773430D02*
D03*
Y756412D02*
D03*
Y739394D02*
D03*
D17*
X502920Y773430D02*
D03*
D18*
X306578Y657098D02*
D03*
X326898D02*
D03*
X390144Y316738D02*
D03*
X410464D02*
D03*
D19*
X758190Y627380D02*
D03*
Y660400D02*
D03*
D20*
X592940Y666680D02*
D03*
X582940D02*
D03*
X572940D02*
D03*
X562940D02*
D03*
X512940D02*
D03*
X522940D02*
D03*
X532940D02*
D03*
X542940D02*
D03*
X552940D02*
D03*
X462940D02*
D03*
X472940D02*
D03*
X482940D02*
D03*
X492940D02*
D03*
X502940D02*
D03*
X412940D02*
D03*
X422940D02*
D03*
X432940D02*
D03*
X442940D02*
D03*
X452940D02*
D03*
X602940D02*
D03*
X592940Y364680D02*
D03*
X562940D02*
D03*
X512940D02*
D03*
X522940D02*
D03*
X532940D02*
D03*
X542940D02*
D03*
X552940D02*
D03*
X462940D02*
D03*
X472940D02*
D03*
X482940D02*
D03*
X492940D02*
D03*
X502940D02*
D03*
X412940D02*
D03*
X422940D02*
D03*
X432940D02*
D03*
X442940D02*
D03*
X452940D02*
D03*
D21*
X356940Y430680D02*
D03*
Y460680D02*
D03*
Y510680D02*
D03*
Y500680D02*
D03*
Y490680D02*
D03*
Y480680D02*
D03*
Y470680D02*
D03*
Y560680D02*
D03*
Y550680D02*
D03*
Y540680D02*
D03*
Y530680D02*
D03*
Y520680D02*
D03*
Y610680D02*
D03*
Y600680D02*
D03*
Y590680D02*
D03*
Y580680D02*
D03*
Y570680D02*
D03*
X658940D02*
D03*
Y580680D02*
D03*
Y590680D02*
D03*
Y600680D02*
D03*
Y610680D02*
D03*
Y520680D02*
D03*
Y530680D02*
D03*
Y540680D02*
D03*
Y550680D02*
D03*
Y560680D02*
D03*
Y470680D02*
D03*
Y480680D02*
D03*
Y490680D02*
D03*
Y500680D02*
D03*
Y510680D02*
D03*
Y460680D02*
D03*
Y450680D02*
D03*
Y440680D02*
D03*
Y430680D02*
D03*
Y420680D02*
D03*
D22*
X355940Y440680D02*
D03*
Y450680D02*
D03*
Y420680D02*
D03*
D23*
X602940Y363680D02*
D03*
X582940D02*
D03*
X572940D02*
D03*
D24*
X350774Y280814D02*
D03*
Y298814D02*
D03*
X321310Y325010D02*
D03*
Y343010D02*
D03*
D25*
X360274Y289814D02*
D03*
X330810Y334010D02*
D03*
D26*
X341274Y289814D02*
D03*
X311810Y334010D02*
D03*
D27*
X760590Y510680D02*
X762000Y509270D01*
X677633Y510680D02*
X760590D01*
X643644Y550680D02*
X658940D01*
X636892Y543928D02*
X643644Y550680D01*
X636892Y510680D02*
Y543928D01*
Y510680D02*
X658940D01*
X677633D01*
X678358Y509956D01*
Y460680D02*
Y509956D01*
X658940Y460680D02*
X678358D01*
X442940Y364680D02*
X452940D01*
X658940Y450680D02*
X686816D01*
X472440Y294640D02*
Y302260D01*
X480568Y310388D01*
X406146Y288544D02*
X451020D01*
X747268Y601980D02*
Y649478D01*
X446086Y626934D02*
X447040Y627888D01*
X432940Y613788D02*
X446086Y626934D01*
X650240Y779018D02*
X656336D01*
X580738Y378122D02*
X600738D01*
X541274Y773430D02*
Y807466D01*
X369824Y590680D02*
Y607060D01*
Y454660D02*
Y590680D01*
X574558Y384302D02*
X594558D01*
X787527Y711200D02*
X795020Y718693D01*
X727710Y651383D02*
X787527Y711200D01*
X275964Y309760D02*
X280924Y304800D01*
X275964Y309760D02*
Y447160D01*
X288544Y459740D01*
X303784D01*
X314724Y470680D01*
X356940D01*
X306070Y316738D02*
Y432486D01*
X334264Y460680D01*
X356940D01*
X492940Y341630D02*
Y364680D01*
X485902Y334592D02*
X492940Y341630D01*
X485902Y291592D02*
Y334592D01*
X468630Y274320D02*
X485902Y291592D01*
X270764Y284480D02*
X280924Y274320D01*
X270764Y284480D02*
Y450850D01*
X292354Y472440D01*
X482940Y354924D02*
Y364680D01*
X480568Y352552D02*
X482940Y354924D01*
X480568Y310388D02*
Y352552D01*
X451020Y288544D02*
Y302006D01*
X306578Y619222D02*
Y657098D01*
Y619222D02*
X325120Y600680D01*
X356940D01*
X422940Y364680D02*
X432940D01*
X422940Y666680D02*
X432940D01*
X422940D02*
Y702564D01*
X414890Y710614D02*
X422940Y702564D01*
X414890Y710614D02*
Y746760D01*
X762000Y529590D02*
X793750D01*
X808990Y544830D01*
X758190Y660400D02*
X778510Y640080D01*
X807720D01*
X751078Y598170D02*
X758190D01*
X747268Y601980D02*
X751078Y598170D01*
X747268Y587756D02*
Y601980D01*
X690880Y591820D02*
X710692Y572008D01*
X670560Y627888D02*
X690880Y607568D01*
X432940Y502920D02*
Y613788D01*
X438020Y508000D02*
X462534D01*
X488188Y436880D02*
Y482346D01*
Y436880D02*
X504190Y420878D01*
X587735Y333227D02*
X609750Y355242D01*
X502520Y304038D02*
X516236Y317754D01*
X747268Y649478D02*
X758190Y660400D01*
X710692Y572008D02*
X731520D01*
X447040Y627888D02*
X670560D01*
X584200Y315113D02*
X587735Y318648D01*
X565901Y317754D02*
X568542Y315113D01*
X516236Y317754D02*
X565901D01*
X758952Y529590D02*
X762000D01*
X747268Y541274D02*
X758952Y529590D01*
X747268Y541274D02*
Y587756D01*
X731520Y572008D02*
X747268Y587756D01*
X690880Y591820D02*
Y607568D01*
X462534Y508000D02*
X488188Y482346D01*
X504190Y420878D02*
X569364D01*
X568542Y315113D02*
X584200D01*
X502520Y302006D02*
Y304038D01*
X432940Y640080D02*
Y666680D01*
Y640080D02*
X446086Y626934D01*
X569364Y420878D02*
X609750Y380492D01*
X432940Y364680D02*
Y502920D01*
X438020Y508000D01*
X609750Y355242D02*
Y380492D01*
X587735Y318648D02*
Y333227D01*
X502520Y302006D02*
X517506Y287020D01*
X537210D01*
X512940Y347218D02*
Y364680D01*
Y347218D02*
X524624Y335534D01*
X706628Y289560D02*
Y327152D01*
Y289560D02*
X715518Y280670D01*
X808228D01*
X820928Y267970D01*
X462940Y354675D02*
Y364680D01*
X452780Y344515D02*
X462940Y354675D01*
X281044Y410330D02*
X292354Y421640D01*
X281044Y360560D02*
Y410330D01*
Y360560D02*
X291084Y350520D01*
Y271018D02*
Y350520D01*
Y271018D02*
X300482Y261620D01*
X483362D01*
X490982Y269240D01*
Y331978D01*
X492760Y333756D01*
X513842D01*
Y330200D02*
Y333756D01*
Y330200D02*
X521208Y322834D01*
X533400D01*
X537464Y326898D01*
Y340360D01*
X522940Y354884D02*
X537464Y340360D01*
X522940Y354884D02*
Y364680D01*
X452120Y492760D02*
X463550Y481330D01*
Y430784D02*
Y481330D01*
Y430784D02*
X502940Y391394D01*
Y364680D02*
Y391394D01*
X450342Y424688D02*
Y477520D01*
Y424688D02*
X472940Y402090D01*
Y364680D02*
Y402090D01*
X640080Y490680D02*
X658940D01*
X621538Y472138D02*
X640080Y490680D01*
X621538Y320802D02*
Y472138D01*
X668528Y293370D02*
Y320802D01*
X643128Y293370D02*
Y320786D01*
X628142Y335772D02*
X643128Y320786D01*
X628142Y335772D02*
Y468996D01*
X639826Y480680D01*
X658940D01*
X606298Y279400D02*
X617728Y267970D01*
X606298Y279400D02*
Y337058D01*
X614830Y345590D01*
Y480765D01*
X634746Y500680D01*
X658940D01*
X617728Y293370D02*
X629158Y281940D01*
X677418D01*
X679958Y284480D01*
Y329692D01*
X640842Y368808D02*
X679958Y329692D01*
X640842Y368808D02*
Y462280D01*
X649242Y470680D01*
X658940D01*
X621922Y590680D02*
X658940D01*
X504190Y472948D02*
X621922Y590680D01*
X670270Y580680D02*
X678688Y572262D01*
X658940Y580680D02*
X670270D01*
X492610Y617490D02*
X668940D01*
X671750Y614680D01*
Y604664D02*
Y614680D01*
X667766Y600680D02*
X671750Y604664D01*
X658940Y600680D02*
X667766D01*
X292354Y548640D02*
X310314Y530680D01*
X356940D01*
X734568Y400050D02*
X757174D01*
X673862Y370840D02*
Y437378D01*
X670560Y440680D02*
X673862Y437378D01*
X670560Y440680D02*
X678444D01*
X735728Y383396D01*
X867012D01*
X879856Y396240D01*
X867410Y443720D02*
X876300D01*
X658940Y440680D02*
X670560D01*
X879856Y396240D02*
Y440164D01*
X876300Y443720D02*
X879856Y440164D01*
X718820Y455930D02*
X782320D01*
X785114Y453136D01*
Y444500D02*
Y453136D01*
X757936Y420370D02*
X782320D01*
X787654Y415036D01*
Y401320D02*
Y415036D01*
X586232Y790448D02*
X618236D01*
X656082Y752602D01*
X729996Y689610D02*
Y731520D01*
X721360Y689610D02*
X729996D01*
X363390Y746760D02*
Y813308D01*
X381424Y831342D01*
X588518D01*
X635000Y784860D01*
X650240D01*
Y779018D02*
Y784860D01*
X656336Y779018D02*
X705104Y730250D01*
Y601218D02*
Y730250D01*
Y601218D02*
X710692Y595630D01*
X717550D01*
X341274Y274320D02*
Y289814D01*
Y274320D02*
X343814Y271779D01*
X376682D01*
X393446Y288544D01*
Y300990D01*
X390144Y304292D02*
X393446Y300990D01*
X390144Y304292D02*
Y316738D01*
X288404Y510680D02*
X356940D01*
X275964Y523120D02*
X288404Y510680D01*
X275964Y523120D02*
Y557650D01*
X292354Y574040D01*
X410464Y316738D02*
Y328168D01*
X416560Y334264D01*
X468630D01*
X576072Y325374D02*
Y334922D01*
X592940Y351790D01*
Y364680D01*
X311810Y334010D02*
Y398574D01*
X343916Y430680D01*
X356940D01*
X321310Y325010D02*
Y343010D01*
Y325010D02*
X330310Y334010D01*
X330810D01*
X355940Y440680D02*
Y450680D01*
X321310Y325010D02*
X333026D01*
X391160Y383144D01*
Y395844D01*
X366324Y420680D02*
X391160Y395844D01*
X366324Y420680D02*
X369824Y424180D01*
Y436880D01*
X366024Y440680D02*
X369824Y436880D01*
X366024Y440680D02*
X378660D01*
X397510Y420680D02*
Y421830D01*
X355940Y420680D02*
X366324D01*
X378660Y440680D02*
X397510Y421830D01*
X355940Y440680D02*
X366024D01*
X397510Y420680D02*
X417540D01*
X412940Y364680D02*
Y374064D01*
X397510Y389494D02*
X412940Y374064D01*
X397510Y389494D02*
Y420680D01*
X355940Y450680D02*
X365844D01*
X369824Y454660D01*
X366204Y610680D02*
X396240D01*
X412940Y627380D02*
Y666680D01*
X356940Y590680D02*
X369824D01*
X366204Y610680D02*
X369824Y607060D01*
X356940Y610680D02*
X366204D01*
X396240D02*
X412940Y627380D01*
X356940Y610680D02*
Y690880D01*
X346780Y701040D02*
X356940Y690880D01*
X323850Y701040D02*
X346780D01*
X412940Y355410D02*
Y364680D01*
Y355410D02*
X416560Y351790D01*
X439420D01*
X442940Y355310D01*
Y364680D01*
X323850Y701040D02*
Y721360D01*
X412940Y666680D02*
Y682752D01*
X403352Y692340D02*
X412940Y682752D01*
X403352Y692340D02*
Y777240D01*
X408432Y782320D01*
X434050D01*
X442940Y773430D01*
X502920D01*
X323850Y721360D02*
X337058D01*
X347218Y731520D01*
Y822960D01*
X363474Y839216D01*
X630174D01*
X684530Y784860D01*
X718820D01*
X502920Y760730D02*
Y773430D01*
X442940Y700750D02*
X502920Y760730D01*
X442940Y666680D02*
Y700750D01*
X718820Y784860D02*
X848360D01*
X873760Y759460D01*
X442940Y364680D02*
Y415544D01*
X438150Y420334D02*
X442940Y415544D01*
X438150Y420334D02*
Y497840D01*
X443230Y502920D01*
X457200D01*
X475996Y484124D01*
Y433832D02*
Y484124D01*
Y433832D02*
X519938Y389890D01*
X568970D01*
X574558Y384302D01*
X594558D02*
X600738Y378122D01*
X572940Y363680D02*
Y371942D01*
X602940Y363680D02*
Y375920D01*
X600738Y378122D02*
X602940Y375920D01*
X572940Y371942D02*
X579120Y378122D01*
X582940Y363680D02*
Y375920D01*
X580738Y378122D02*
X582940Y375920D01*
X579120Y378122D02*
X580738D01*
X572940Y363680D02*
X582940D01*
X873760Y701040D02*
Y759460D01*
Y701040D02*
X876300Y698500D01*
Y640080D02*
Y698500D01*
X502920Y773430D02*
X541274D01*
Y807466D02*
X574040D01*
X568452Y779018D02*
Y801878D01*
X574040Y773430D02*
X586232D01*
X574040Y807466D02*
X586232D01*
X568452Y801878D02*
X574040Y807466D01*
X568452Y779018D02*
X574040Y773430D01*
X839470Y759460D02*
X873760D01*
X826770Y772160D02*
X839470Y759460D01*
X768350Y772160D02*
X826770D01*
X758190Y762000D02*
X768350Y772160D01*
X758190Y731520D02*
Y762000D01*
X876300Y635000D02*
Y640080D01*
X868680Y627380D02*
X876300Y635000D01*
X795020Y627380D02*
X868680D01*
X758190D02*
X795020D01*
X877570Y544830D01*
X750316Y731520D02*
X758190D01*
X740156Y721360D02*
X750316Y731520D01*
X740156Y671068D02*
Y721360D01*
X738378Y669290D02*
X740156Y671068D01*
X721360Y669290D02*
X738378D01*
X721360Y644398D02*
Y669290D01*
X717550Y640588D02*
X721360Y644398D01*
X717550Y615950D02*
Y640588D01*
X758190Y627380D02*
X768350Y617220D01*
Y577850D02*
Y617220D01*
X803656Y509270D02*
X818896D01*
X758190Y577850D02*
X768350D01*
X803910D01*
X828040Y553720D01*
Y518414D02*
Y553720D01*
X818896Y509270D02*
X828040Y518414D01*
X803656Y509270D02*
X815086Y497840D01*
X762000Y509270D02*
X803656D01*
X815086Y444500D02*
Y497840D01*
Y425450D02*
Y444500D01*
Y425450D02*
X817626Y401320D01*
X867410Y403860D01*
Y409720D01*
X649582Y430680D02*
X658940D01*
X649402Y460680D02*
X658940D01*
X645922Y457200D02*
X649402Y460680D01*
X645922Y434340D02*
Y457200D01*
Y434340D02*
X649582Y430680D01*
X658940Y420680D02*
Y430680D01*
X350774Y280814D02*
Y298814D01*
X586232Y739394D02*
Y756412D01*
Y739394D02*
X681990D01*
X700024Y721360D01*
Y592836D02*
Y721360D01*
Y592836D02*
X706120Y586740D01*
X727710D01*
Y651383D01*
X795020Y718693D02*
Y754380D01*
X800100Y759460D02*
X805180D01*
X758190Y711200D02*
X787527D01*
X795020Y754380D02*
X800100Y759460D01*
X548640Y548640D02*
Y600520D01*
X558800Y610680D01*
X658940D01*
X693928Y293370D02*
Y335280D01*
X704088Y345440D01*
X845058D01*
X897128Y293370D01*
D28*
D03*
D29*
Y267970D02*
D03*
X871728Y293370D02*
D03*
Y267970D02*
D03*
X846328Y293370D02*
D03*
Y267970D02*
D03*
X820928Y293370D02*
D03*
Y267970D02*
D03*
X795528Y293370D02*
D03*
Y267970D02*
D03*
X770128Y293370D02*
D03*
Y267970D02*
D03*
X744728Y293370D02*
D03*
Y267970D02*
D03*
X719328Y293370D02*
D03*
Y267970D02*
D03*
X693928Y293370D02*
D03*
Y267970D02*
D03*
X668528Y293370D02*
D03*
Y267970D02*
D03*
X643128Y293370D02*
D03*
Y267970D02*
D03*
X617728Y293370D02*
D03*
Y267970D02*
D03*
X592328Y293370D02*
D03*
Y267970D02*
D03*
X292354Y421640D02*
D03*
Y599440D02*
D03*
Y574040D02*
D03*
Y548640D02*
D03*
Y523240D02*
D03*
Y497840D02*
D03*
Y472440D02*
D03*
Y447040D02*
D03*
Y396240D02*
D03*
D30*
Y370840D02*
D03*
D31*
X406146Y288544D02*
D03*
D32*
X393446D02*
D03*
D33*
X686816Y450680D02*
D03*
X472440Y294640D02*
D03*
X280924Y304800D02*
D03*
X306070Y316738D02*
D03*
X468630Y274320D02*
D03*
X280924D02*
D03*
X524624Y335534D02*
D03*
X706628Y327152D02*
D03*
X452780Y344515D02*
D03*
X452120Y492760D02*
D03*
X450342Y477520D02*
D03*
X621538Y320802D02*
D03*
X668528D02*
D03*
X504190Y472948D02*
D03*
X678688Y572262D02*
D03*
X492610Y617490D02*
D03*
X734568Y400050D02*
D03*
X673862Y370840D02*
D03*
X656082Y752602D02*
D03*
X729996Y731520D02*
D03*
X468630Y334264D02*
D03*
X576072Y325374D02*
D03*
X417540Y420680D02*
D03*
X548640Y548640D02*
D03*
M02*
