G04 Layer_Color=128*
%FSLAX44Y44*%
%MOMM*%
G71*
G01*
G75*
%ADD37R,0.3500X0.8000*%
%ADD60R,1.7780X4.0894*%
G36*
X534924Y437642D02*
X524256D01*
X524256Y461518D01*
X534924D01*
X534924Y437642D01*
D02*
G37*
G36*
X433324Y437896D02*
X427736D01*
Y461264D01*
X433324D01*
Y437896D01*
D02*
G37*
G36*
X509524Y437642D02*
X498856D01*
Y461518D01*
X509524D01*
Y437642D01*
D02*
G37*
G36*
X420370Y461518D02*
Y437642D01*
X414782Y437642D01*
Y461518D01*
X420370Y461518D01*
D02*
G37*
G36*
X471424Y437896D02*
X460756D01*
Y442286D01*
X460746D01*
Y459786D01*
X460756D01*
Y461264D01*
X471424D01*
Y437896D01*
D02*
G37*
G36*
X522224D02*
X511556D01*
X511556Y461518D01*
X522224D01*
X522224Y437896D01*
D02*
G37*
G36*
X411734Y713486D02*
Y672846D01*
X393446Y672846D01*
Y713486D01*
X411734Y713486D01*
D02*
G37*
G36*
X484124Y437896D02*
X473456Y437896D01*
Y461264D01*
X484124Y461264D01*
Y437896D01*
D02*
G37*
G36*
X496824Y437896D02*
X486156D01*
Y461264D01*
X496824D01*
Y437896D01*
D02*
G37*
D37*
X505610Y561950D02*
D03*
X499110D02*
D03*
X492610D02*
D03*
Y542950D02*
D03*
X499110D02*
D03*
X505610D02*
D03*
D60*
X596646Y693039D02*
D03*
M02*
