G04 Layer_Physical_Order=2*
G04 Layer_Color=16711680*
%FSLAX44Y44*%
%MOMM*%
G71*
G01*
G75*
%ADD27C,0.2540*%
%ADD28R,1.5000X1.5000*%
%ADD29C,1.5000*%
%ADD30R,1.5000X1.5000*%
%ADD31C,1.0000*%
%ADD32R,1.0000X1.0000*%
%ADD33C,1.2700*%
%ADD34R,0.5000X2.3000*%
%ADD35R,1.0000X2.3000*%
%ADD36R,1.7000X4.0000*%
%ADD37R,0.3500X0.8000*%
G36*
X700980Y756487D02*
X664095D01*
X663847Y757085D01*
X662422Y758942D01*
X660565Y760367D01*
X658403Y761263D01*
X656082Y761569D01*
X653761Y761263D01*
X651599Y760367D01*
X649742Y758942D01*
X648317Y757085D01*
X647421Y754923D01*
X647115Y752602D01*
X647421Y750281D01*
X648317Y748119D01*
X649742Y746262D01*
X651599Y744837D01*
X653761Y743941D01*
X656082Y743635D01*
X658403Y743941D01*
X660565Y744837D01*
X662422Y746262D01*
X663847Y748119D01*
X664095Y748717D01*
X700980D01*
Y404200D01*
X702250Y402930D01*
X692090Y392770D01*
X573966D01*
X573440Y394040D01*
X626195Y446795D01*
X678803D01*
X679051Y446197D01*
X680476Y444339D01*
X682333Y442914D01*
X684495Y442019D01*
X686816Y441713D01*
X689137Y442019D01*
X691299Y442914D01*
X693156Y444339D01*
X694581Y446197D01*
X695477Y448359D01*
X695783Y450680D01*
X695477Y453001D01*
X694581Y455163D01*
X693156Y457020D01*
X691299Y458445D01*
X689137Y459341D01*
X686816Y459646D01*
X684495Y459341D01*
X682333Y458445D01*
X680476Y457020D01*
X679051Y455163D01*
X678803Y454565D01*
X624586D01*
X623099Y454269D01*
X621839Y453427D01*
X568537Y400125D01*
X355540D01*
Y493955D01*
X428413D01*
X441929Y480439D01*
X441681Y479841D01*
X441375Y477520D01*
X441681Y475199D01*
X442577Y473037D01*
X444002Y471180D01*
X445859Y469755D01*
X448021Y468859D01*
X450342Y468553D01*
X452663Y468859D01*
X454825Y469755D01*
X456120Y469147D01*
X456194Y468546D01*
X454533Y466885D01*
X453691Y465624D01*
X453395Y464138D01*
Y434270D01*
X453691Y432783D01*
X454533Y431523D01*
X455793Y430681D01*
X457280Y430385D01*
X476180D01*
X477667Y430681D01*
X478927Y431523D01*
X481537Y434133D01*
X482379Y435393D01*
X482408Y435540D01*
X513005D01*
Y433409D01*
X507915Y428319D01*
X444595D01*
X435580Y437334D01*
Y448310D01*
X430540D01*
Y449580D01*
X429270D01*
Y463620D01*
X425500D01*
Y453465D01*
X422580D01*
Y463620D01*
X418810D01*
Y449580D01*
X417540D01*
Y448310D01*
X412500D01*
Y435540D01*
X413655D01*
Y428693D01*
X413057Y428445D01*
X411199Y427020D01*
X409775Y425163D01*
X408879Y423001D01*
X408740Y421950D01*
X426339D01*
X426201Y423001D01*
X425305Y425163D01*
X423880Y427020D01*
X422023Y428445D01*
X421425Y428693D01*
Y435540D01*
X422580D01*
Y445695D01*
X425500D01*
Y435540D01*
X426922D01*
X426951Y435393D01*
X427793Y434133D01*
X440239Y421687D01*
X441500Y420845D01*
X442986Y420549D01*
X509524D01*
X511011Y420845D01*
X512271Y421687D01*
X519637Y429053D01*
X520479Y430313D01*
X520775Y431800D01*
Y435540D01*
X537130D01*
Y463620D01*
X533475D01*
Y539065D01*
X542950D01*
X544436Y539361D01*
X545697Y540203D01*
X545720Y540227D01*
X546319Y539979D01*
X548640Y539673D01*
X550961Y539979D01*
X553123Y540875D01*
X554980Y542300D01*
X556405Y544157D01*
X557301Y546319D01*
X557607Y548640D01*
X557301Y550961D01*
X556405Y553123D01*
X554980Y554980D01*
X553123Y556405D01*
X550961Y557301D01*
X548640Y557607D01*
X546319Y557301D01*
X544157Y556405D01*
X542300Y554980D01*
X540875Y553123D01*
X539979Y550961D01*
X539673Y548640D01*
X539785Y547789D01*
X538948Y546834D01*
X509900D01*
Y549490D01*
X499493D01*
X499007Y550663D01*
X501857Y553513D01*
X502699Y554773D01*
X502826Y555410D01*
X509900D01*
Y568377D01*
X670675D01*
X670923Y567779D01*
X672348Y565922D01*
X674205Y564497D01*
X676367Y563601D01*
X678688Y563295D01*
X681009Y563601D01*
X683171Y564497D01*
X685028Y565922D01*
X686453Y567779D01*
X687349Y569941D01*
X687655Y572262D01*
X687349Y574583D01*
X686453Y576745D01*
X685028Y578602D01*
X683171Y580027D01*
X681009Y580923D01*
X678688Y581229D01*
X676367Y580923D01*
X674205Y580027D01*
X672348Y578602D01*
X670923Y576745D01*
X670675Y576147D01*
X502412D01*
X500925Y575851D01*
X499665Y575009D01*
X497668Y573012D01*
X496495Y573498D01*
Y609477D01*
X497094Y609725D01*
X498951Y611150D01*
X500376Y613007D01*
X501271Y615169D01*
X501577Y617490D01*
X501271Y619811D01*
X500376Y621974D01*
X498951Y623831D01*
X497094Y625256D01*
X494931Y626151D01*
X492610Y626457D01*
X490289Y626151D01*
X488127Y625256D01*
X486270Y623831D01*
X484845Y621974D01*
X483949Y619811D01*
X483643Y617490D01*
X483949Y615169D01*
X484845Y613007D01*
X486270Y611150D01*
X488127Y609725D01*
X488726Y609477D01*
Y568490D01*
X488320D01*
Y565987D01*
X470742D01*
X469255Y565691D01*
X467995Y564849D01*
X459533Y556387D01*
X458691Y555127D01*
X458395Y553640D01*
Y500586D01*
X457256Y500024D01*
X456603Y500525D01*
X454441Y501421D01*
X452120Y501727D01*
X449799Y501421D01*
X449201Y501173D01*
X438357Y512017D01*
X437097Y512859D01*
X435610Y513155D01*
X355540D01*
Y696300D01*
X354270Y697570D01*
X355540Y701380D01*
Y747100D01*
X366970Y758530D01*
X374590Y766150D01*
X700980D01*
Y756487D01*
D02*
G37*
%LPC*%
G36*
X416270Y463620D02*
X412500D01*
Y450850D01*
X416270D01*
Y463620D01*
D02*
G37*
G36*
X426339Y419410D02*
X418810D01*
Y411880D01*
X419861Y412019D01*
X422023Y412915D01*
X423880Y414339D01*
X425305Y416197D01*
X426201Y418359D01*
X426339Y419410D01*
D02*
G37*
G36*
X416270D02*
X408740D01*
X408879Y418359D01*
X409775Y416197D01*
X411199Y414339D01*
X413057Y412915D01*
X415219Y412019D01*
X416270Y411880D01*
Y419410D01*
D02*
G37*
G36*
X607610Y715620D02*
X585530D01*
Y670540D01*
X607610D01*
Y715620D01*
D02*
G37*
G36*
X413610D02*
X391530D01*
Y670540D01*
X413610D01*
Y715620D01*
D02*
G37*
G36*
X435580Y463620D02*
X431810D01*
Y450850D01*
X435580D01*
Y463620D01*
D02*
G37*
%LPD*%
D27*
X624586Y450680D02*
X686816D01*
X472440Y294640D02*
X534924D01*
X537718Y297434D01*
X553212Y281940D02*
X781558D01*
X553212D02*
X555752Y279400D01*
X537718Y297434D02*
X553212Y281940D01*
X781558D02*
X784098Y279400D01*
X446786Y274320D02*
X468630D01*
X470742Y562102D02*
X492610D01*
X309953Y312855D02*
X312223Y310585D01*
X484921D01*
X457250Y304800D02*
X480546D01*
X280924D02*
X457250D01*
X834898D02*
X846328Y293370D01*
X480546Y304800D02*
X834898D01*
X484921Y310585D02*
X854513D01*
X306070Y316738D02*
X309953Y312855D01*
X555752Y279400D02*
X784098D01*
X795528Y267970D01*
X524624Y335534D02*
X698246D01*
X706628Y327152D01*
X270884Y344812D02*
X452780Y344515D01*
X287528Y560324D02*
X297180D01*
X303784Y534670D02*
Y553720D01*
X281044Y458350D02*
X292354Y447040D01*
X281044Y458350D02*
Y502920D01*
X435610Y509270D02*
X452120Y492760D01*
X621538Y320802D02*
X668528D01*
X504190Y449580D02*
Y472948D01*
Y484482D01*
X492610Y496062D02*
X504190Y484482D01*
X466090Y449580D02*
Y477774D01*
X467360Y479044D02*
Y541274D01*
X477520Y551434D01*
X499110Y561950D02*
Y568960D01*
X457280Y434270D02*
X476180D01*
X457280D02*
Y464138D01*
X460502Y467360D01*
Y480822D02*
X462280Y482600D01*
Y553640D01*
X470742Y562102D01*
X492610Y561950D02*
Y562102D01*
Y617490D01*
X292354Y396240D02*
X570146D01*
X693928Y359410D02*
X734568Y400050D01*
X292354Y370840D02*
X673862D01*
X477520Y325374D02*
X576072D01*
X430540Y436880D02*
Y449580D01*
Y436880D02*
X442986Y424434D01*
X509524D01*
X499110Y524256D02*
X516890Y506476D01*
X505610Y542950D02*
X505762Y542798D01*
X529590D01*
Y449580D02*
Y542798D01*
X871728Y267970D02*
X897128D01*
X270884Y344812D02*
Y543680D01*
X287528Y560324D01*
X297180D02*
X303784Y553720D01*
X292354Y523240D02*
X303784Y534670D01*
X280924Y274320D02*
X446786D01*
X281044Y502920D02*
X287394Y509270D01*
X435610D01*
X292354Y497840D02*
X430022D01*
X450342Y477520D01*
X492610Y496062D02*
Y542950D01*
X466090Y477774D02*
X467360Y479044D01*
X477520Y551434D02*
X494284D01*
X499110Y556260D01*
Y561950D01*
Y568960D02*
X502412Y572262D01*
X678688D01*
X478790Y436880D02*
Y449580D01*
X476180Y434270D02*
X478790Y436880D01*
X460502Y467360D02*
Y480822D01*
X570146Y396240D02*
X624586Y450680D01*
X275964Y532250D02*
X292354Y548640D01*
X275964Y364370D02*
Y532250D01*
Y364370D02*
X280924Y359410D01*
X693928D01*
X656082Y752602D02*
X708914D01*
X729996Y731520D01*
X468630Y334264D02*
X477520Y325374D01*
X854513Y310585D02*
X871728Y293370D01*
X417540Y420680D02*
Y449580D01*
X430540D01*
X509524Y424434D02*
X516890Y431800D01*
Y449580D01*
Y506476D01*
X499110Y524256D02*
Y542950D01*
X505610D02*
X542950D01*
X548640Y548640D01*
D28*
X897128Y293370D02*
D03*
D29*
Y267970D02*
D03*
X871728Y293370D02*
D03*
Y267970D02*
D03*
X846328Y293370D02*
D03*
Y267970D02*
D03*
X820928Y293370D02*
D03*
Y267970D02*
D03*
X795528Y293370D02*
D03*
Y267970D02*
D03*
X770128Y293370D02*
D03*
Y267970D02*
D03*
X744728Y293370D02*
D03*
Y267970D02*
D03*
X719328Y293370D02*
D03*
Y267970D02*
D03*
X693928Y293370D02*
D03*
Y267970D02*
D03*
X668528Y293370D02*
D03*
Y267970D02*
D03*
X643128Y293370D02*
D03*
Y267970D02*
D03*
X617728Y293370D02*
D03*
Y267970D02*
D03*
X592328Y293370D02*
D03*
Y267970D02*
D03*
X292354Y421640D02*
D03*
Y599440D02*
D03*
Y574040D02*
D03*
Y548640D02*
D03*
Y523240D02*
D03*
Y497840D02*
D03*
Y472440D02*
D03*
Y447040D02*
D03*
Y396240D02*
D03*
D30*
Y370840D02*
D03*
D31*
X406146Y288544D02*
D03*
D32*
X393446D02*
D03*
D33*
X686816Y450680D02*
D03*
X472440Y294640D02*
D03*
X280924Y304800D02*
D03*
X306070Y316738D02*
D03*
X468630Y274320D02*
D03*
X280924D02*
D03*
X524624Y335534D02*
D03*
X706628Y327152D02*
D03*
X452780Y344515D02*
D03*
X452120Y492760D02*
D03*
X450342Y477520D02*
D03*
X621538Y320802D02*
D03*
X668528D02*
D03*
X504190Y472948D02*
D03*
X678688Y572262D02*
D03*
X492610Y617490D02*
D03*
X734568Y400050D02*
D03*
X673862Y370840D02*
D03*
X656082Y752602D02*
D03*
X729996Y731520D02*
D03*
X468630Y334264D02*
D03*
X576072Y325374D02*
D03*
X417540Y420680D02*
D03*
X548640Y548640D02*
D03*
D34*
X417540Y449580D02*
D03*
X430540D02*
D03*
D35*
X529590D02*
D03*
X516890D02*
D03*
X504190D02*
D03*
X491490D02*
D03*
X478790D02*
D03*
X466090D02*
D03*
D36*
X596570Y693080D02*
D03*
X402570D02*
D03*
D37*
X505610Y561950D02*
D03*
X499110D02*
D03*
X492610D02*
D03*
Y542950D02*
D03*
X499110D02*
D03*
X505610D02*
D03*
M02*
