G04 Layer_Color=16711935*
%FSLAX44Y44*%
%MOMM*%
G71*
G01*
G75*
%ADD54R,1.7032X1.7032*%
%ADD55C,1.7032*%
%ADD56R,1.7032X1.7032*%
%ADD57C,1.2032*%
%ADD58R,1.2032X1.2032*%
%ADD59C,1.4732*%
G36*
X510032Y437290D02*
X498444D01*
Y462026D01*
X510032D01*
Y437290D01*
D02*
G37*
G36*
X433832Y461772D02*
X433832Y437388D01*
X427228Y437388D01*
X427228Y461772D01*
X433832Y461772D01*
D02*
G37*
G36*
X484378Y437290D02*
X473044D01*
X473044Y461772D01*
X484378D01*
X484378Y437290D01*
D02*
G37*
G36*
X535432Y437134D02*
X523734Y437134D01*
Y462026D01*
X535432Y462026D01*
Y437134D01*
D02*
G37*
G36*
X420878D02*
X414274D01*
Y462026D01*
X420878D01*
Y437134D01*
D02*
G37*
G36*
X412242Y672084D02*
X392938D01*
Y714248D01*
X412242D01*
Y672084D01*
D02*
G37*
G36*
X606044D02*
X587248D01*
Y713994D01*
X606044D01*
Y672084D01*
D02*
G37*
G36*
X522732Y437388D02*
X511048Y437388D01*
X511048Y462026D01*
X522732Y462026D01*
X522732Y437388D01*
D02*
G37*
G36*
X471678Y437388D02*
X460502D01*
Y461772D01*
X471678D01*
Y437388D01*
D02*
G37*
G36*
X497332D02*
X485744D01*
Y461772D01*
X497332D01*
Y437388D01*
D02*
G37*
D54*
X897128Y293370D02*
D03*
D55*
Y267970D02*
D03*
X871728Y293370D02*
D03*
Y267970D02*
D03*
X846328Y293370D02*
D03*
Y267970D02*
D03*
X820928Y293370D02*
D03*
Y267970D02*
D03*
X795528Y293370D02*
D03*
Y267970D02*
D03*
X770128Y293370D02*
D03*
Y267970D02*
D03*
X744728Y293370D02*
D03*
Y267970D02*
D03*
X719328Y293370D02*
D03*
Y267970D02*
D03*
X693928Y293370D02*
D03*
Y267970D02*
D03*
X668528Y293370D02*
D03*
Y267970D02*
D03*
X643128Y293370D02*
D03*
Y267970D02*
D03*
X617728Y293370D02*
D03*
Y267970D02*
D03*
X592328Y293370D02*
D03*
Y267970D02*
D03*
X292354Y421640D02*
D03*
Y599440D02*
D03*
Y574040D02*
D03*
Y548640D02*
D03*
Y523240D02*
D03*
Y497840D02*
D03*
Y472440D02*
D03*
Y447040D02*
D03*
Y396240D02*
D03*
D56*
Y370840D02*
D03*
D57*
X406146Y288544D02*
D03*
D58*
X393446D02*
D03*
D59*
X686816Y450680D02*
D03*
X472440Y294640D02*
D03*
X280924Y304800D02*
D03*
X306070Y316738D02*
D03*
X468630Y274320D02*
D03*
X280924D02*
D03*
X524624Y335534D02*
D03*
X706628Y327152D02*
D03*
X452780Y344515D02*
D03*
X452120Y492760D02*
D03*
X450342Y477520D02*
D03*
X621538Y320802D02*
D03*
X668528D02*
D03*
X504190Y472948D02*
D03*
X678688Y572262D02*
D03*
X492610Y617490D02*
D03*
X734568Y400050D02*
D03*
X673862Y370840D02*
D03*
X656082Y752602D02*
D03*
X729996Y731520D02*
D03*
X468630Y334264D02*
D03*
X576072Y325374D02*
D03*
X417540Y420680D02*
D03*
X548640Y548640D02*
D03*
M02*
