M48
;Layer_Color=9474304
;FILE_FORMAT=4:4
METRIC,LZ
;TYPE=PLATED
T1F00S00C0.6000
T2F00S00C0.7112
T3F00S00C0.9000
%
T01
X00393446Y00288544
X00406146
T02
X00280924Y0027432
Y003048
X0030607Y00316738
X0045278Y00344515
X0046863Y00334264
X0047244Y0029464
X0046863Y0027432
X00524624Y00335534
X00576072Y00325374
X00621538Y00320802
X00668528
X00706628Y00327152
X00673862Y0037084
X00734568Y0040005
X00686816Y0045068
X00678688Y00572262
X0054864Y0054864
X0050419Y00472948
X00450342Y0047752
X0045212Y0049276
X0041754Y0042068
X0049261Y0061749
X00656082Y00752602
X00729996Y0073152
T03
X00292354Y0037084
Y0039624
X00592328Y0029337
X00617728
X00643128
X00668528
X00693928
X00719328
X00744728
X00770128
Y0026797
X00744728
X00719328
X00693928
X00668528
X00643128
X00617728
X00592328
X00795528
X00820928
X00846328
X00871728
X00897128
Y0029337
X00871728
X00846328
X00820928
X00795528
X00292354Y0042164
Y0044704
Y0047244
Y0049784
Y0052324
Y0054864
Y0057404
Y0059944
M30
